<?xml version="1.0" encoding="UTF-8" standalone="no"?>
<!-- Created with Inkscape (http://www.inkscape.org/) -->

<svg
   xmlns:dc="http://purl.org/dc/elements/1.1/"
   xmlns:cc="http://creativecommons.org/ns#"
   xmlns:rdf="http://www.w3.org/1999/02/22-rdf-syntax-ns#"
   xmlns:svg="http://www.w3.org/2000/svg"
   xmlns="http://www.w3.org/2000/svg"
   xmlns:sodipodi="http://sodipodi.sourceforge.net/DTD/sodipodi-0.dtd"
   xmlns:inkscape="http://www.inkscape.org/namespaces/inkscape"
   width="16"
   height="16"
   viewBox="0 0 4.2333332 4.2333335"
   version="1.1"
   id="svg6575"
   inkscape:version="0.92.1 r15371"
   sodipodi:docname="help 1.svg">
  <defs
     id="defs6569" />
  <sodipodi:namedview
     id="base"
     pagecolor="#ffffff"
     bordercolor="#666666"
     borderopacity="1.0"
     inkscape:pageopacity="0.0"
     inkscape:pageshadow="2"
     inkscape:zoom="18.478364"
     inkscape:cx="-15.067377"
     inkscape:cy="1.8234209"
     inkscape:document-units="mm"
     inkscape:current-layer="layer1"
     showgrid="false"
     fit-margin-top="0"
     fit-margin-left="0"
     fit-margin-right="0"
     fit-margin-bottom="0"
     units="px"
     inkscape:window-width="1920"
     inkscape:window-height="1017"
     inkscape:window-x="-8"
     inkscape:window-y="-8"
     inkscape:window-maximized="1" />
  <metadata
     id="metadata6572">
    <rdf:RDF>
      <cc:Work
         rdf:about="">
        <dc:format>image/svg+xml</dc:format>
        <dc:type
           rdf:resource="http://purl.org/dc/dcmitype/StillImage" />
        <dc:title />
      </cc:Work>
    </rdf:RDF>
  </metadata>
  <g
     inkscape:label="Layer 1"
     inkscape:groupmode="layer"
     id="layer1"
     transform="translate(0,-292.76665)">
    <path
       style="color:#000000;font-style:normal;font-variant:normal;font-weight:normal;font-stretch:normal;font-size:medium;line-height:normal;font-family:sans-serif;font-variant-ligatures:normal;font-variant-position:normal;font-variant-caps:normal;font-variant-numeric:normal;font-variant-alternates:normal;font-feature-settings:normal;text-indent:0;text-align:start;text-decoration:none;text-decoration-line:none;text-decoration-style:solid;text-decoration-color:#000000;letter-spacing:normal;word-spacing:normal;text-transform:none;writing-mode:lr-tb;direction:ltr;text-orientation:mixed;dominant-baseline:auto;baseline-shift:baseline;text-anchor:start;white-space:normal;shape-padding:0;clip-rule:nonzero;display:inline;overflow:visible;visibility:visible;opacity:1;isolation:auto;mix-blend-mode:normal;color-interpolation:sRGB;color-interpolation-filters:linearRGB;solid-color:#000000;solid-opacity:1;vector-effect:none;fill:#ff0000;fill-opacity:1;fill-rule:nonzero;stroke:none;stroke-width:0.52916676;stroke-linecap:round;stroke-linejoin:miter;stroke-miterlimit:4;stroke-dasharray:none;stroke-dashoffset:0;stroke-opacity:1;paint-order:fill markers stroke;color-rendering:auto;image-rendering:auto;shape-rendering:auto;text-rendering:auto;enable-background:accumulate"
       d="m 2.1156896,292.76665 c -0.5857154,0 -1.0573563,0.49056 -1.0573563,1.08031 a 0.2648277,0.26470556 0 1 0 0.5296554,0 c 0,-0.31137 0.2360406,-0.55285 0.5277009,-0.55285 0.2916617,0 0.5296554,0.24148 0.5296554,0.55285 0,0.15926 -0.053558,0.28513 -0.1563558,0.39072 -0.2359296,0.24231 -0.3806915,0.38427 -0.4847031,0.53917 -0.1040115,0.15491 -0.1446291,0.33589 -0.1446291,0.50792 v 0.39462 a 0.2648277,0.26470556 0 1 0 0.5296554,0 v -0.39462 c 0,-0.12383 2.893e-4,-0.13187 0.054724,-0.21293 0.054435,-0.0811 0.1880014,-0.22244 0.4241153,-0.46494 C 3.0619593,294.40784 3.175,294.13826 3.175,293.84696 c 0,-0.58975 -0.4735946,-1.08031 -1.0593104,-1.08031 z"
       id="path6529"
       inkscape:connector-curvature="0" />
    <path
       style="opacity:1;fill:#ff0000;fill-opacity:1;stroke:none;stroke-width:0.52916664;stroke-linecap:round;stroke-linejoin:round;stroke-miterlimit:4;stroke-dasharray:none;stroke-dashoffset:0;stroke-opacity:1;paint-order:fill markers stroke"
       d="m 2.1166011,296.4707 c 0.1466783,0 0.2647622,0.11803 0.2647622,0.26463 0,0.14662 -0.1180839,0.26465 -0.2647622,0.26465 -0.1466782,0 -0.2647622,-0.11803 -0.2647622,-0.26465 0,-0.1466 0.118084,-0.26463 0.2647622,-0.26463 z"
       id="rect6531"
       inkscape:connector-curvature="0" />
  </g>
</svg>
