<svg id="layer" xmlns="http://www.w3.org/2000/svg" viewBox="0 0 16 16"><defs><style>.cls-1{fill:red;}</style></defs><g id="line"><rect class="cls-1" width="1" height="16"/></g><g id="line-2" data-name="line"><rect class="cls-1" x="15" width="1" height="16"/></g><rect id="line-3" data-name="line" class="cls-1" width="16" height="1"/><rect id="line-4" data-name="line" class="cls-1" y="15" width="16" height="1"/><rect id="line-5" data-name="line" class="cls-1" x="3" y="3" width="4" height="1"/><rect id="line-6" data-name="line" class="cls-1" x="3" y="6" width="4" height="1"/><rect id="line-7" data-name="line" class="cls-1" x="3" y="3" width="1" height="4"/><rect id="line-8" data-name="line" class="cls-1" x="6" y="3" width="1" height="4"/><rect id="line-9" data-name="line" class="cls-1" x="3" y="9" width="4" height="1"/><rect id="line-10" data-name="line" class="cls-1" x="3" y="12" width="4" height="1"/><rect id="line-11" data-name="line" class="cls-1" x="3" y="9" width="1" height="4"/><rect id="line-12" data-name="line" class="cls-1" x="6" y="9" width="1" height="4"/><rect id="line-13" data-name="line" class="cls-1" x="9" y="9" width="4" height="1"/><rect id="line-14" data-name="line" class="cls-1" x="9" y="12" width="4" height="1"/><rect id="line-15" data-name="line" class="cls-1" x="9" y="9" width="1" height="4"/><rect id="line-16" data-name="line" class="cls-1" x="12" y="9" width="1" height="4"/><rect id="line-17" data-name="line" class="cls-1" x="9" y="3" width="4" height="1"/><rect id="line-18" data-name="line" class="cls-1" x="9" y="6" width="4" height="1"/><rect id="line-19" data-name="line" class="cls-1" x="9" y="3" width="1" height="4"/><rect id="line-20" data-name="line" class="cls-1" x="12" y="3" width="1" height="4"/></svg>