<?xml version="1.0" encoding="UTF-8" standalone="no"?>
<!-- Created with Inkscape (http://www.inkscape.org/) -->

<svg
   xmlns:dc="http://purl.org/dc/elements/1.1/"
   xmlns:cc="http://creativecommons.org/ns#"
   xmlns:rdf="http://www.w3.org/1999/02/22-rdf-syntax-ns#"
   xmlns:svg="http://www.w3.org/2000/svg"
   xmlns="http://www.w3.org/2000/svg"
   xmlns:sodipodi="http://sodipodi.sourceforge.net/DTD/sodipodi-0.dtd"
   xmlns:inkscape="http://www.inkscape.org/namespaces/inkscape"
   width="16"
   height="16"
   viewBox="0 0 4.2333332 4.2333335"
   version="1.1"
   id="svg6575"
   inkscape:version="0.92.1 r15371"
   sodipodi:docname="settings 1.svg">
  <defs
     id="defs6569" />
  <sodipodi:namedview
     id="base"
     pagecolor="#ffffff"
     bordercolor="#666666"
     borderopacity="1.0"
     inkscape:pageopacity="0.0"
     inkscape:pageshadow="2"
     inkscape:zoom="12.842823"
     inkscape:cx="-16.023181"
     inkscape:cy="9.4975942"
     inkscape:document-units="mm"
     inkscape:current-layer="layer1"
     showgrid="false"
     fit-margin-top="0"
     fit-margin-left="0"
     fit-margin-right="0"
     fit-margin-bottom="0"
     units="px"
     inkscape:window-width="1920"
     inkscape:window-height="1017"
     inkscape:window-x="-8"
     inkscape:window-y="-8"
     inkscape:window-maximized="1" />
  <metadata
     id="metadata6572">
    <rdf:RDF>
      <cc:Work
         rdf:about="">
        <dc:format>image/svg+xml</dc:format>
        <dc:type
           rdf:resource="http://purl.org/dc/dcmitype/StillImage" />
        <dc:title />
      </cc:Work>
    </rdf:RDF>
  </metadata>
  <g
     inkscape:label="Layer 1"
     inkscape:groupmode="layer"
     id="layer1"
     transform="translate(0,-292.76665)">
    <g
       transform="translate(-13.029466,256.06161)"
       id="g6544"
       style="fill:#ff0000">
      <path
         style="opacity:1;fill:#ff0000;fill-opacity:1;stroke:none;stroke-width:0.52916664;stroke-linecap:round;stroke-linejoin:round;stroke-miterlimit:4;stroke-dasharray:none;stroke-dashoffset:0;stroke-opacity:1;paint-order:fill markers stroke"
         d="m 15.675299,37.366493 a 0.52916664,0.39687499 0 0 1 -0.529167,0.396875 0.52916664,0.39687499 0 0 1 -0.529166,-0.396875 0.52916664,0.39687499 0 0 1 0.529166,-0.396875 0.52916664,0.39687499 0 0 1 0.529167,0.396875 z"
         id="path6535"
         inkscape:connector-curvature="0" />
      <path
         style="opacity:1;fill:#ff0000;fill-opacity:1;stroke:none;stroke-width:0.52916664;stroke-linecap:round;stroke-linejoin:round;stroke-miterlimit:4;stroke-dasharray:none;stroke-dashoffset:0;stroke-opacity:1;paint-order:fill markers stroke"
         d="m 15.675299,38.953995 a 0.52916664,0.39687499 0 0 1 -0.529167,0.396875 0.52916664,0.39687499 0 0 1 -0.529166,-0.396875 0.52916664,0.39687499 0 0 1 0.529166,-0.396875 0.52916664,0.39687499 0 0 1 0.529167,0.396875 z"
         id="ellipse6537"
         inkscape:connector-curvature="0" />
      <path
         style="opacity:1;fill:#ff0000;fill-opacity:1;stroke:none;stroke-width:0.52916664;stroke-linecap:round;stroke-linejoin:round;stroke-miterlimit:4;stroke-dasharray:none;stroke-dashoffset:0;stroke-opacity:1;paint-order:fill markers stroke"
         d="m 15.675299,40.541496 a 0.52916664,0.39687499 0 0 1 -0.529167,0.396875 0.52916664,0.39687499 0 0 1 -0.529166,-0.396875 0.52916664,0.39687499 0 0 1 0.529166,-0.396875 0.52916664,0.39687499 0 0 1 0.529167,0.396875 z"
         id="ellipse6539"
         inkscape:connector-curvature="0" />
    </g>
  </g>
</svg>
